<?xml version="1.0" encoding="iso-8859-1"?>
<!-- Generator: Adobe Illustrator 22.1.0, SVG Export Plug-In . SVG Version: 6.00 Build 0)  -->
<svg xmlns="http://www.w3.org/2000/svg" xmlns:xlink="http://www.w3.org/1999/xlink" version="1.1" id="Filled" x="0px" y="0px" viewBox="0 0 24 24" style="enable-background:new 0 0 24 24;" xml:space="preserve" width="2048px" height="2048px" fill="#fff">
<path d="M3.14,2.848C3.055,3.046,3,3.263,3,3.504v17.087c0,0.197,0.045,0.379,0.11,0.549l8.8-9.161L3.14,2.848z"/>
<path d="M20.225,10.711c-0.065-0.037-1.194-0.675-2.802-1.584l-2.74,2.852l2.719,2.831c1.669-0.945,2.824-1.599,2.824-1.599  c0.499-0.303,0.78-0.769,0.773-1.277C20.992,11.439,20.703,10.982,20.225,10.711z"/>
<path d="M5.416,2.329l7.881,8.206l2.329-2.425C11.611,5.839,6.302,2.835,5.416,2.329z"/>
<path d="M13.297,13.423l-7.823,8.144c1.347-0.766,6.324-3.584,10.132-5.74L13.297,13.423z"/>
</svg>
