<?xml version="1.0" encoding="iso-8859-1"?>
<!-- Generator: Adobe Illustrator 19.2.1, SVG Export Plug-In . SVG Version: 6.00 Build 0)  -->
<svg xmlns="http://www.w3.org/2000/svg" xmlns:xlink="http://www.w3.org/1999/xlink" version="1.1" id="Layer_1" x="0px" y="0px" viewBox="0 0 50 50" style="enable-background:new 0 0 50 50;" xml:space="preserve" width="500px" height="500px" fill="#fff">
<path d="M44.529,34.75c-1.081,2.393-1.598,3.464-2.986,5.579c-1.94,2.954-4.678,6.64-8.064,6.665  c-3.012,0.025-3.789-1.965-7.876-1.932c-4.087,0.02-4.939,1.969-7.954,1.938c-3.386-0.031-5.978-3.352-7.92-6.3  C4.3,32.429,3.727,22.736,7.082,17.579c2.374-3.657,6.13-5.805,9.657-5.805c3.592,0,5.85,1.974,8.82,1.974  c2.882,0,4.637-1.979,8.791-1.979c3.142,0,6.464,1.712,8.838,4.666C35.422,20.69,36.684,31.782,44.529,34.75z M31.197,8.468  c1.511-1.94,2.657-4.677,2.242-7.468c-2.466,0.168-5.349,1.743-7.034,3.782c-1.526,1.857-2.791,4.615-2.298,7.283  C26.797,12.152,29.581,10.548,31.197,8.468z"/>
</svg>
